<mxfile host="app.diagrams.net" modified="2022-03-03T22:40:40.477Z" agent="5.0 (Windows NT 10.0; Win64; x64) AppleWebKit/537.36 (KHTML, like Gecko) Chrome/98.0.4758.102 Safari/537.36" etag="1Rw7nM0peBQp1naSr0db" version="16.6.5" type="github">
  <diagram id="C5RBs43oDa-KdzZeNtuy" name="Page-1">
    <mxGraphModel dx="1645" dy="581" grid="1" gridSize="10" guides="1" tooltips="1" connect="1" arrows="1" fold="1" page="1" pageScale="1" pageWidth="827" pageHeight="1169" math="0" shadow="0">
      <root>
        <mxCell id="WIyWlLk6GJQsqaUBKTNV-0" />
        <mxCell id="WIyWlLk6GJQsqaUBKTNV-1" parent="WIyWlLk6GJQsqaUBKTNV-0" />
        <mxCell id="3Wca_gVqtnT1EBq70O5_-0" value="&lt;font style=&quot;font-size: 10px&quot;&gt;BAŞLA&lt;/font&gt;" style="ellipse;whiteSpace=wrap;html=1;" parent="WIyWlLk6GJQsqaUBKTNV-1" vertex="1">
          <mxGeometry x="290" y="10" width="90" height="40" as="geometry" />
        </mxCell>
        <mxCell id="3Wca_gVqtnT1EBq70O5_-3" value="&lt;font style=&quot;font-size: 10px&quot;&gt;BİTİR&lt;/font&gt;" style="ellipse;whiteSpace=wrap;html=1;" parent="WIyWlLk6GJQsqaUBKTNV-1" vertex="1">
          <mxGeometry x="292" y="490" width="86" height="40" as="geometry" />
        </mxCell>
        <mxCell id="3Wca_gVqtnT1EBq70O5_-4" value="&lt;font style=&quot;font-size: 10px&quot;&gt;Görev Hazırlığı&lt;/font&gt;" style="rounded=1;whiteSpace=wrap;html=1;" parent="WIyWlLk6GJQsqaUBKTNV-1" vertex="1">
          <mxGeometry x="285" y="70" width="100" height="40" as="geometry" />
        </mxCell>
        <mxCell id="3Wca_gVqtnT1EBq70O5_-6" value="&lt;font style=&quot;font-size: 10px&quot;&gt;Otonom Kalkış&amp;nbsp;&lt;/font&gt;" style="rounded=1;whiteSpace=wrap;html=1;" parent="WIyWlLk6GJQsqaUBKTNV-1" vertex="1">
          <mxGeometry x="285" y="130" width="100" height="40" as="geometry" />
        </mxCell>
        <mxCell id="3Wca_gVqtnT1EBq70O5_-7" value="&lt;font style=&quot;font-size: 10px&quot;&gt;Uçuş Alanının Tara&lt;/font&gt;" style="rounded=1;whiteSpace=wrap;html=1;" parent="WIyWlLk6GJQsqaUBKTNV-1" vertex="1">
          <mxGeometry x="285" y="190" width="100" height="40" as="geometry" />
        </mxCell>
        <mxCell id="3Wca_gVqtnT1EBq70O5_-8" value="&lt;font style=&quot;font-size: 10px&quot;&gt;Yangın &lt;/font&gt;&lt;font style=&quot;font-size: 9px&quot;&gt;(Kırmızı alan)&lt;br&gt;görüldü mü?&lt;br&gt;&lt;/font&gt;" style="rhombus;whiteSpace=wrap;html=1;" parent="WIyWlLk6GJQsqaUBKTNV-1" vertex="1">
          <mxGeometry x="275" y="250" width="120" height="90" as="geometry" />
        </mxCell>
        <mxCell id="3Wca_gVqtnT1EBq70O5_-10" value="&lt;font style=&quot;font-size: 10px&quot;&gt;Taramaya Devam Et&lt;/font&gt;" style="rounded=1;whiteSpace=wrap;html=1;" parent="WIyWlLk6GJQsqaUBKTNV-1" vertex="1">
          <mxGeometry x="140" y="275" width="100" height="40" as="geometry" />
        </mxCell>
        <mxCell id="3Wca_gVqtnT1EBq70O5_-11" value="&lt;span style=&quot;font-size: 10px&quot;&gt;Yangın Topunu Bırak&lt;/span&gt;" style="rounded=1;whiteSpace=wrap;html=1;" parent="WIyWlLk6GJQsqaUBKTNV-1" vertex="1">
          <mxGeometry x="210" y="360" width="100" height="40" as="geometry" />
        </mxCell>
        <mxCell id="3Wca_gVqtnT1EBq70O5_-12" value="&lt;span style=&quot;font-size: 10px&quot;&gt;İtfaiyeye Sms Yolla&lt;/span&gt;" style="rounded=1;whiteSpace=wrap;html=1;" parent="WIyWlLk6GJQsqaUBKTNV-1" vertex="1">
          <mxGeometry x="360" y="360" width="100" height="40" as="geometry" />
        </mxCell>
        <mxCell id="3Wca_gVqtnT1EBq70O5_-13" value="&lt;font style=&quot;font-size: 10px&quot;&gt;İnişe Geç&lt;/font&gt;" style="rounded=1;whiteSpace=wrap;html=1;" parent="WIyWlLk6GJQsqaUBKTNV-1" vertex="1">
          <mxGeometry x="285" y="420" width="100" height="40" as="geometry" />
        </mxCell>
        <mxCell id="3Wca_gVqtnT1EBq70O5_-14" value="" style="endArrow=classic;html=1;rounded=0;fontSize=10;exitX=0.5;exitY=1;exitDx=0;exitDy=0;entryX=0.5;entryY=0;entryDx=0;entryDy=0;" parent="WIyWlLk6GJQsqaUBKTNV-1" source="3Wca_gVqtnT1EBq70O5_-0" target="3Wca_gVqtnT1EBq70O5_-4" edge="1">
          <mxGeometry width="50" height="50" relative="1" as="geometry">
            <mxPoint x="320" y="110" as="sourcePoint" />
            <mxPoint x="370" y="60" as="targetPoint" />
          </mxGeometry>
        </mxCell>
        <mxCell id="3Wca_gVqtnT1EBq70O5_-16" value="" style="endArrow=classic;html=1;rounded=0;fontSize=10;exitX=0.5;exitY=1;exitDx=0;exitDy=0;entryX=0.5;entryY=0;entryDx=0;entryDy=0;" parent="WIyWlLk6GJQsqaUBKTNV-1" source="3Wca_gVqtnT1EBq70O5_-4" target="3Wca_gVqtnT1EBq70O5_-6" edge="1">
          <mxGeometry width="50" height="50" relative="1" as="geometry">
            <mxPoint x="345" y="60" as="sourcePoint" />
            <mxPoint x="345" y="80" as="targetPoint" />
            <Array as="points" />
          </mxGeometry>
        </mxCell>
        <mxCell id="3Wca_gVqtnT1EBq70O5_-17" value="" style="endArrow=classic;html=1;rounded=0;fontSize=10;exitX=0.5;exitY=1;exitDx=0;exitDy=0;entryX=0.5;entryY=0;entryDx=0;entryDy=0;" parent="WIyWlLk6GJQsqaUBKTNV-1" source="3Wca_gVqtnT1EBq70O5_-6" target="3Wca_gVqtnT1EBq70O5_-7" edge="1">
          <mxGeometry width="50" height="50" relative="1" as="geometry">
            <mxPoint x="355" y="70" as="sourcePoint" />
            <mxPoint x="330" y="190" as="targetPoint" />
          </mxGeometry>
        </mxCell>
        <mxCell id="3Wca_gVqtnT1EBq70O5_-19" value="" style="endArrow=classic;html=1;rounded=0;fontSize=10;exitX=0.5;exitY=1;exitDx=0;exitDy=0;entryX=0.5;entryY=0;entryDx=0;entryDy=0;" parent="WIyWlLk6GJQsqaUBKTNV-1" source="3Wca_gVqtnT1EBq70O5_-7" target="3Wca_gVqtnT1EBq70O5_-8" edge="1">
          <mxGeometry width="50" height="50" relative="1" as="geometry">
            <mxPoint x="420" y="280" as="sourcePoint" />
            <mxPoint x="470" y="230" as="targetPoint" />
          </mxGeometry>
        </mxCell>
        <mxCell id="3Wca_gVqtnT1EBq70O5_-22" value="" style="endArrow=classic;html=1;rounded=0;fontSize=10;exitX=0;exitY=0.5;exitDx=0;exitDy=0;entryX=1;entryY=0.5;entryDx=0;entryDy=0;" parent="WIyWlLk6GJQsqaUBKTNV-1" source="3Wca_gVqtnT1EBq70O5_-8" target="3Wca_gVqtnT1EBq70O5_-10" edge="1">
          <mxGeometry width="50" height="50" relative="1" as="geometry">
            <mxPoint x="235" y="370" as="sourcePoint" />
            <mxPoint x="285" y="320" as="targetPoint" />
          </mxGeometry>
        </mxCell>
        <mxCell id="3Wca_gVqtnT1EBq70O5_-23" value="" style="endArrow=classic;startArrow=classic;html=1;rounded=0;fontSize=10;exitX=0;exitY=0.5;exitDx=0;exitDy=0;" parent="WIyWlLk6GJQsqaUBKTNV-1" source="3Wca_gVqtnT1EBq70O5_-10" edge="1">
          <mxGeometry width="50" height="50" relative="1" as="geometry">
            <mxPoint x="330" y="300" as="sourcePoint" />
            <mxPoint x="340" y="240" as="targetPoint" />
            <Array as="points">
              <mxPoint x="130" y="295" />
              <mxPoint x="130" y="240" />
            </Array>
          </mxGeometry>
        </mxCell>
        <mxCell id="3Wca_gVqtnT1EBq70O5_-24" value="" style="endArrow=classic;html=1;rounded=0;fontSize=10;exitX=0.5;exitY=1;exitDx=0;exitDy=0;entryX=0.5;entryY=0;entryDx=0;entryDy=0;" parent="WIyWlLk6GJQsqaUBKTNV-1" source="3Wca_gVqtnT1EBq70O5_-8" target="3Wca_gVqtnT1EBq70O5_-11" edge="1">
          <mxGeometry width="50" height="50" relative="1" as="geometry">
            <mxPoint x="285" y="460" as="sourcePoint" />
            <mxPoint x="335" y="410" as="targetPoint" />
            <Array as="points">
              <mxPoint x="260" y="340" />
            </Array>
          </mxGeometry>
        </mxCell>
        <mxCell id="3Wca_gVqtnT1EBq70O5_-25" value="" style="endArrow=classic;html=1;rounded=0;fontSize=10;exitX=0.5;exitY=1;exitDx=0;exitDy=0;entryX=0.5;entryY=0;entryDx=0;entryDy=0;" parent="WIyWlLk6GJQsqaUBKTNV-1" source="3Wca_gVqtnT1EBq70O5_-8" target="3Wca_gVqtnT1EBq70O5_-12" edge="1">
          <mxGeometry width="50" height="50" relative="1" as="geometry">
            <mxPoint x="344.9999999999998" y="350" as="sourcePoint" />
            <mxPoint x="269.9999999999998" y="370" as="targetPoint" />
            <Array as="points">
              <mxPoint x="390" y="340" />
              <mxPoint x="410" y="340" />
            </Array>
          </mxGeometry>
        </mxCell>
        <mxCell id="3Wca_gVqtnT1EBq70O5_-27" value="" style="endArrow=classic;html=1;rounded=0;fontSize=10;exitX=0.5;exitY=1;exitDx=0;exitDy=0;entryX=0;entryY=0.5;entryDx=0;entryDy=0;" parent="WIyWlLk6GJQsqaUBKTNV-1" source="3Wca_gVqtnT1EBq70O5_-11" target="3Wca_gVqtnT1EBq70O5_-13" edge="1">
          <mxGeometry width="50" height="50" relative="1" as="geometry">
            <mxPoint x="150" y="520" as="sourcePoint" />
            <mxPoint x="200" y="470" as="targetPoint" />
            <Array as="points">
              <mxPoint x="260" y="440" />
            </Array>
          </mxGeometry>
        </mxCell>
        <mxCell id="3Wca_gVqtnT1EBq70O5_-28" value="" style="endArrow=classic;html=1;rounded=0;fontSize=10;exitX=0.5;exitY=1;exitDx=0;exitDy=0;entryX=1;entryY=0.5;entryDx=0;entryDy=0;" parent="WIyWlLk6GJQsqaUBKTNV-1" source="3Wca_gVqtnT1EBq70O5_-12" target="3Wca_gVqtnT1EBq70O5_-13" edge="1">
          <mxGeometry width="50" height="50" relative="1" as="geometry">
            <mxPoint x="430" y="470" as="sourcePoint" />
            <mxPoint x="480" y="420" as="targetPoint" />
            <Array as="points">
              <mxPoint x="410" y="440" />
            </Array>
          </mxGeometry>
        </mxCell>
        <mxCell id="3Wca_gVqtnT1EBq70O5_-29" value="" style="endArrow=classic;html=1;rounded=0;fontSize=10;exitX=0.5;exitY=1;exitDx=0;exitDy=0;" parent="WIyWlLk6GJQsqaUBKTNV-1" source="3Wca_gVqtnT1EBq70O5_-13" target="3Wca_gVqtnT1EBq70O5_-3" edge="1">
          <mxGeometry width="50" height="50" relative="1" as="geometry">
            <mxPoint x="240" y="540" as="sourcePoint" />
            <mxPoint x="290" y="490" as="targetPoint" />
          </mxGeometry>
        </mxCell>
        <mxCell id="gNsl-3sBS9q7DG79-R6Y-0" value="Hayır" style="text;strokeColor=none;fillColor=none;align=left;verticalAlign=middle;spacingLeft=4;spacingRight=4;overflow=hidden;points=[[0,0.5],[1,0.5]];portConstraint=eastwest;rotatable=0;" vertex="1" parent="WIyWlLk6GJQsqaUBKTNV-1">
          <mxGeometry x="240" y="270" width="80" height="30" as="geometry" />
        </mxCell>
        <mxCell id="gNsl-3sBS9q7DG79-R6Y-1" value="Evet" style="text;strokeColor=none;fillColor=none;align=left;verticalAlign=middle;spacingLeft=4;spacingRight=4;overflow=hidden;points=[[0,0.5],[1,0.5]];portConstraint=eastwest;rotatable=0;" vertex="1" parent="WIyWlLk6GJQsqaUBKTNV-1">
          <mxGeometry x="315" y="340" width="40" height="20" as="geometry" />
        </mxCell>
      </root>
    </mxGraphModel>
  </diagram>
</mxfile>
